<svg width="361" height="151" viewBox="0 0 361 151" fill="none" xmlns="http://www.w3.org/2000/svg">
<path d="M39.9769 58.137C42.3769 57.637 43.3769 54.737 42.5769 52.637C41.7769 50.637 39.5769 49.437 37.4769 49.337C32.9769 49.137 28.8769 52.337 25.2769 54.637C17.9769 60.037 11.0769 66.637 7.37688 74.937C4.87688 80.837 6.87688 85.737 13.6769 86.037C24.8769 86.237 35.7769 81.137 45.3769 75.537C53.3769 70.737 60.9769 65.137 68.0769 58.937L89.3769 39.637C89.3769 39.637 132.177 0.936993 132.177 0.836993C134.477 -1.36301 138.277 1.13698 136.977 4.13698C132.777 13.937 127.077 23.037 120.077 30.937C112.977 38.737 105.577 45.737 98.1769 53.137C88.8769 62.137 78.0769 72.537 69.0769 81.737C68.0769 82.937 66.6769 85.037 67.3769 86.637C67.4769 86.737 67.3769 86.737 67.3769 86.637C68.5769 86.637 70.8769 84.837 71.8769 83.937C92.2769 68.137 111.077 48.937 135.377 39.237C150.077 33.737 166.277 32.737 181.677 35.837C161.277 33.737 140.377 38.137 123.577 49.937C110.977 58.337 99.4769 69.237 88.0769 79.237C84.1769 82.637 80.1769 86.037 76.0769 89.237C74.2769 90.637 72.4769 92.137 70.2769 92.937C63.9769 95.337 58.7769 89.437 60.6769 83.337C62.3769 77.437 68.1769 74.837 72.3769 71.037C80.2769 64.437 87.4769 57.037 94.8769 49.937C102.177 42.737 109.577 35.337 116.177 27.737C122.677 20.137 127.777 11.237 131.177 1.83699L135.977 5.13698L93.8769 44.637C87.7769 50.337 78.8769 58.837 72.7769 64.437C60.6769 75.037 47.2769 84.437 31.8769 89.737C23.6769 92.237 11.8769 95.137 4.27688 89.337C-3.42312 83.037 0.576879 72.037 6.07688 65.837C7.67688 63.937 9.37688 62.037 11.1769 60.337C16.6769 55.037 29.5769 45.537 37.4769 47.037C41.4769 47.637 44.9769 51.937 42.5769 55.837C41.9769 56.937 40.7769 57.737 39.5769 57.837L39.9769 58.137Z" fill="white"/>
<path d="M93.2744 82.1371C102.074 85.0371 112.474 82.4371 118.574 75.4371C119.474 74.2371 120.074 72.4371 120.074 70.9371C120.074 70.1371 120.074 69.4371 119.474 68.9371C118.174 67.9371 115.274 68.3371 113.474 68.5371C108.674 69.2371 104.774 72.3371 101.174 75.6371C98.4744 78.1371 95.7744 80.5371 94.0744 83.7371C90.9744 90.9371 92.4744 93.2371 100.474 92.0371C111.774 90.5371 122.774 85.5371 130.374 76.9371C133.074 73.7371 136.074 70.2372 137.574 66.3372C137.574 66.1372 137.574 65.9372 137.574 66.3372C137.574 66.7372 138.174 67.2371 138.574 67.2371C138.174 67.2371 137.774 67.4371 137.374 67.6371C132.574 70.1371 128.474 74.3371 125.974 79.1371C125.174 80.8371 123.974 83.1372 124.774 84.8372C125.074 85.2372 125.974 85.5371 126.974 85.5371C130.474 85.2371 133.574 82.6371 136.674 81.0371C141.074 78.4371 145.274 75.4371 149.174 72.2371C150.674 70.9371 152.974 69.3371 153.474 67.4371C153.874 66.0371 152.174 66.0371 151.274 66.7371C149.674 67.9371 148.474 70.6371 147.374 72.4371C146.074 74.6371 144.874 76.9371 143.674 79.2371C136.674 92.7371 129.574 108.137 118.874 119.237C114.774 123.637 109.874 127.237 104.674 130.337C101.574 132.137 98.3744 134.037 94.5744 134.237C89.0744 134.637 83.1744 129.837 84.6744 123.937C86.0744 117.837 92.4744 114.937 97.3744 112.437C109.274 106.737 122.474 104.437 134.674 100.437C151.774 94.8371 167.674 85.6371 181.074 73.6371C186.574 68.8371 184.774 64.0371 177.474 67.2371C169.974 70.4371 165.074 80.0372 171.074 86.8372C176.774 91.8372 185.074 87.2372 189.974 82.8372C189.674 84.1372 188.974 85.3371 188.074 86.4371C185.474 89.8371 181.374 92.0371 177.074 92.1371C170.574 92.5371 165.574 87.4371 165.074 81.1371C164.374 75.2371 167.674 69.5371 172.274 66.2371C174.674 64.5371 177.174 63.1371 180.174 62.7371C183.574 62.1371 187.774 64.3372 187.774 68.3372C187.474 74.2372 181.174 77.7371 177.274 81.2371C164.874 90.9371 150.674 98.4371 135.574 103.237C123.074 107.237 110.374 109.437 98.6744 115.237C95.4744 116.937 91.8744 118.437 90.3744 121.737C88.2744 126.937 93.1744 129.637 97.8744 128.637C100.174 128.237 102.674 127.337 104.874 126.337C125.974 115.037 133.574 90.5371 144.274 70.6371C146.074 67.5371 147.574 63.2371 151.674 62.5371C155.074 61.8371 158.174 64.9372 157.174 68.3372C156.174 71.8372 153.474 73.6371 151.574 75.2371C147.474 78.6371 143.074 81.6371 138.474 84.2371C134.174 86.3371 129.474 90.0372 124.374 88.3372C121.374 87.4372 120.674 84.2371 121.474 81.5371C123.374 74.8371 128.074 69.1372 133.874 65.3372C135.674 64.2372 138.574 62.3372 140.374 64.3372C143.274 67.6372 132.274 79.4371 129.474 81.6371C123.374 86.9371 116.074 90.6371 108.474 92.9371C105.874 93.7371 103.374 94.3372 100.774 94.8372C97.8744 95.4372 95.0744 96.0372 91.9744 94.8372C86.9744 92.4372 88.1744 85.8371 89.8744 81.7371C91.6744 77.8371 94.8744 74.8371 97.9744 72.2371C102.274 68.3371 107.574 64.6372 113.674 64.3372C121.774 63.3372 125.774 67.9371 122.174 75.5371C120.874 78.2371 118.374 80.0371 115.974 81.5371C108.974 85.8371 99.8744 86.6371 92.3744 83.4371C91.5744 83.0371 92.0744 81.8371 92.8744 82.1371H93.2744Z" fill="white"/>
<path d="M220.88 106.137C212.18 109.037 204.48 100.537 204.58 92.1369C204.48 84.0369 208.68 76.7369 213.88 70.9369C219.08 65.2369 225.18 60.8369 231.18 56.7369C237.18 52.6369 243.08 48.6369 247.98 43.7369C250.38 41.3369 252.48 38.6369 253.58 35.7369C256.28 29.6369 252.28 23.2369 246.08 21.5369C241.28 20.2369 236.18 21.9369 232.48 25.2369C228.68 28.5369 226.28 33.5369 225.78 38.5369C225.78 40.1369 225.88 41.9369 226.88 42.7369C229.58 44.4369 233.78 42.4369 234.48 39.2369C234.88 37.5369 234.38 35.7369 233.08 34.3369C234.58 35.5369 235.38 37.4369 235.18 39.3369C234.78 43.4369 229.58 46.3369 225.88 44.1369C221.48 40.4369 224.38 31.5369 226.78 27.4369C230.78 20.6369 238.98 16.0369 247.08 17.9369C252.08 19.1369 256.68 22.8369 258.28 27.9369C262.18 42.9369 244.38 53.8369 234.28 61.3369C225.58 67.4369 217.08 73.6369 212.08 83.0369C209.88 87.3369 208.48 92.2369 209.78 96.9369C211.08 101.437 215.38 105.137 220.28 104.637L220.68 106.237L220.88 106.137Z" fill="white"/>
<path d="M228.474 80.5367C226.974 85.0367 227.274 91.1367 232.274 92.7367C238.474 93.3367 245.574 89.0367 248.674 83.6367C250.674 80.0367 250.974 73.6367 247.274 71.0367C246.074 70.2367 244.474 70.0367 242.874 70.1367C236.774 70.6367 230.574 74.9367 228.474 80.5367ZM223.874 78.5367C226.574 73.2367 231.674 69.6367 237.274 68.2367C246.274 65.9367 253.174 69.3367 252.874 79.3367C252.674 85.1367 248.674 90.2367 244.074 93.4367C240.474 95.9367 236.274 97.7367 231.774 97.5367C230.074 97.4367 228.274 97.3367 226.674 96.3367C220.874 92.5367 221.174 84.1367 223.874 78.5367Z" fill="white"/>
<path d="M271.678 66.0373C266.878 69.6373 263.378 74.4373 261.078 79.9373C259.878 82.5373 259.178 85.2373 259.478 87.4373C259.678 90.0373 261.378 91.9373 263.578 93.1373C267.378 94.7373 271.178 90.6373 273.778 87.8373C277.378 83.5373 280.178 78.3373 282.378 72.9373L288.378 75.7373C285.878 80.6373 282.878 85.4373 280.978 90.5373C280.978 90.5373 280.978 90.5373 280.878 90.0373C280.678 89.4373 280.078 88.8373 279.478 88.7373C279.578 88.7373 279.978 88.7373 280.378 88.5373C281.678 88.1373 283.178 87.3373 284.478 86.7373C300.878 78.4373 315.478 66.4373 326.678 51.9373C329.478 47.9373 333.578 43.7373 334.078 38.8373C334.178 32.9373 328.978 32.3373 325.178 35.6373C323.178 37.2373 321.478 39.5373 320.478 41.9373C312.978 58.8373 305.178 76.4373 297.378 93.2373C293.578 101.237 288.978 108.937 283.778 116.037L283.478 115.837C294.778 97.0373 300.678 75.3373 308.078 54.8373C310.178 49.0373 311.978 43.0373 314.378 37.4373C317.578 30.7373 325.578 24.4373 333.278 28.0373C340.378 31.4373 339.778 40.8373 336.078 46.4373C328.778 57.8373 319.478 67.7373 309.178 76.4373C301.878 82.5373 293.878 87.8373 285.478 92.3373C283.378 93.3373 281.378 94.5373 278.878 94.3373C276.478 94.1373 274.878 91.9373 275.378 89.5373C277.078 83.5373 280.178 78.4373 282.478 72.8373C284.378 68.9373 290.178 71.5373 288.478 75.5373C284.078 84.0373 279.178 93.2373 270.278 98.0373C267.778 99.2373 264.278 100.137 261.278 99.1373C256.378 97.6373 252.678 92.4373 253.178 87.3373C253.478 83.6373 255.178 80.6373 257.178 77.7373C260.678 72.5373 265.678 68.2373 271.578 66.0373H271.678Z" fill="white"/>
<path d="M360.778 102.137C251.478 131.537 138.578 147.937 25.1781 150.937C23.4781 150.937 22.1781 149.637 22.0781 148.037C22.0781 146.337 23.3781 145.037 24.9781 144.937C137.178 145.037 254.678 125.937 360.778 102.137Z" fill="white"/>
<path d="M204.48 112.837C205.198 112.837 205.78 112.255 205.78 111.537C205.78 110.819 205.198 110.237 204.48 110.237C203.762 110.237 203.18 110.819 203.18 111.537C203.18 112.255 203.762 112.837 204.48 112.837Z" stroke="white" stroke-width="6" stroke-miterlimit="10"/>
</svg>
